# xmcd
#
# Track frame offsets:
#	150
#	19169
#	35699
#	51930
#	69148
#	82852
#	101732
#	119197
#	136859
#	153706
#	168758
#	185226
#
# Disc length: 2771 seconds
#
# Revision: 0
# Processed by: cddbd v1.5.2PL0 Copyright (c) Steve Scherf et al.
# Submitted via: EZCDAudioConverter 2.8.1.1
#
DISCID=a30ad10c
DTITLE=Kwabs - Love +War
DYEAR=2015
DGENRE=
TTITLE0=Love and War
TTITLE1=Fight For Love
TTITLE2=Walk
TTITLE3=My Own
TTITLE4=Look Over Your Shoulder
TTITLE5=Perfect Ruin
TTITLE6=Forgiven
TTITLE7=Layback
TTITLE8=Make You Mine
TTITLE9=Father Figure
TTITLE10=Wrong Or Right
TTITLE11=Cheating On Me
EXTD=
EXTT0=
EXTT1=
EXTT2=
EXTT3=
EXTT4=
EXTT5=
EXTT6=
EXTT7=
EXTT8=
EXTT9=
EXTT10=
EXTT11=
PLAYORDER=
